<?xml version="1.0" encoding="UTF-8"?> <!-- Generator: Adobe Illustrator 23.0.2, SVG Export Plug-In . SVG Version: 6.00 Build 0) --> <svg xmlns="http://www.w3.org/2000/svg" xmlns:xlink="http://www.w3.org/1999/xlink" id="Capa_1" x="0px" y="0px" viewBox="0 0 57 57" style="enable-background:new 0 0 57 57;" xml:space="preserve"> <style type="text/css"> .st0{fill:#636363;} </style> <g> <path class="st0" d="M36.4,25.4c0.1,0,0.2,0.1,0.3,0.1c0.4,0,0.8-0.3,0.9-0.7c0.3-0.9,1.3-1.4,2.2-1.1c2,0.7,4.1-0.4,4.8-2.4 c0.2-0.5-0.1-1.1-0.6-1.3c-0.5-0.2-1.1,0.1-1.3,0.6c-0.3,0.9-1.3,1.4-2.2,1.1c-2-0.7-4.1,0.4-4.8,2.4 C35.6,24.7,35.8,25.2,36.4,25.4z"></path> <path class="st0" d="M38.7,18.4c0.1,0,0.2,0.1,0.3,0.1c0.4,0,0.8-0.3,0.9-0.7c0.2-0.4,0.5-0.8,0.9-1s0.9-0.2,1.3-0.1 c2,0.7,4.1-0.4,4.8-2.4c0.2-0.5-0.1-1.1-0.6-1.3s-1.1,0.1-1.3,0.6c-0.3,0.9-1.3,1.4-2.2,1.1c-1-0.3-2-0.3-2.9,0.2 c-0.9,0.4-1.6,1.2-1.9,2.2C37.9,17.7,38.2,18.3,38.7,18.4z"></path> <path class="st0" d="M41.1,11.5c0.1,0,0.2,0.1,0.3,0.1c0.4,0,0.8-0.3,0.9-0.7c0.2-0.7,1-1,1.6-0.8c0.8,0.3,1.7,0.2,2.5-0.2 s1.4-1.1,1.7-1.9c0.2-0.5-0.1-1.1-0.6-1.3s-1.1,0.1-1.3,0.6c0,0.4-0.2,0.6-0.6,0.8c-0.3,0.2-0.7,0.2-1,0.1 c-1.7-0.6-3.6,0.3-4.2,2.1C40.3,10.7,40.6,11.3,41.1,11.5z"></path> <path class="st0" d="M48.3,25.3c-0.1-0.1-0.3-0.2-0.5-0.2c2-6.5,3.1-12.8,3.2-18.8c0-1.9-0.9-4.4-2.7-5.6c-0.9-0.6-2.4-1-4.3,0 c-3,1.5-5.1,6.1-6.8,9.7c-0.1,0.2-0.2,0.4-0.3,0.6c-0.4-1.7-1.5-3.2-3.2-4c-0.4-1.9-1.9-3.3-3.7-3.7c0-0.1,0-0.2-0.1-0.3 c-0.4-1.3-1.5-2.3-2.9-2.4c-0.7-0.1-1.5,0.1-2.1,0.4c-0.5-0.3-1.1-0.5-1.8-0.5c-1.7,0-3.2,1.2-3.6,2.8c-1.9,0.5-3.3,2.3-3.3,4.3 c-2.2,0.6-3.7,2.5-3.7,4.9c0,0.6,0.1,1.2,0.3,1.8C12.3,15,12,15.9,12,16.8c0,0.5,0.1,1.1,0.3,1.6c-1-1.1-2.4-2-4-1.9 c-0.6,0-1,0.5-1,1s0.5,1,1,1h0.1c0.9,0,1.8,0.6,2.4,1.3c-1.6,0.5-3.5,1.2-4.4,2.9c-0.5,1-0.6,2.3-0.2,3.7C6,26.7,5.9,27,6,27.4 l1.7,24.2c0.2,3,2.7,5.4,5.7,5.4h28.1c3,0,5.5-2.4,5.7-5.4l1.7-25l0,0C48.9,26,48.7,25.6,48.3,25.3z M37.7,13.9 c0.4-0.7,0.8-1.7,1.3-2.6c1.5-3.2,3.6-7.6,5.9-8.8c0.9-0.4,1.6-0.5,2.3,0C48.4,3.1,49,5,49,6.3c-0.2,5.9-1.2,12.1-3.2,18.5 c-0.1,0.2-0.2,0.6-0.4,1.2l-1.7,0.8c0,0-0.1,0-0.1,0.1c-0.5,0.3-1,0.4-1.6,0.4s-1.1-0.2-1.6-0.4l-0.7-0.4C38.9,26,38,25.8,37,25.8 l0,0c-0.9,0-1.9,0.2-2.7,0.7l-0.7,0.4c-0.4,0.2-0.8,0.4-1.3,0.4c0-0.1,0.1-0.2,0.1-0.3c0.3-0.9,0.6-1.8,0.9-2.8 c0.1-0.3,0.2-0.7,0.4-1c0.3-0.7,0.5-1.4,0.8-2.1c0.1-0.3,0.2-0.6,0.4-1C35.6,17.9,36.6,15.8,37.7,13.9z M24.9,16.2 c0.1-0.1,0.2-0.3,0.3-0.4l0,0c0.1-0.1,0.1-0.2,0.2-0.3c0.2-0.5,0.3-1,0.2-1.5l4.2-0.9c0,0.1,0.1,0.3,0.1,0.4c0.2,0.5,0.5,0.8,1,1.1 c0.2,0.1,0.3,0.2,0.5,0.3c0.1,0.1,0.3,0.1,0.4,0.2c0.1,0,0.1,0.1,0.2,0.1c0.1,0.1,0.2,0.1,0.3,0.2c0.1,0.1,0.2,0.1,0.3,0.2 c0.1,0.1,0.2,0.2,0.3,0.2c0.1,0.1,0.2,0.2,0.3,0.2c0.1,0.1,0.2,0.2,0.3,0.3c0.2,0.2,0.3,0.4,0.4,0.6c-0.4,0.9-0.8,1.9-1.2,2.9 c-0.1,0.1-0.1,0.3-0.2,0.4c-1.1,0.3-2.2,0.8-3.5,1.7c-1.6,1.2-2.9,1.5-4.9,1.2l-0.6-2.8C23.2,18.5,24.1,17.3,24.9,16.2z M29.9,10.2 L29.9,10.2c0.3,0,0.4,0.1,0.5,0.3c0,0.1,0,0.3-0.1,0.3c0,0.1-0.1,0.1-0.3,0.2l-5.5,1.2c-0.2,0-0.4-0.1-0.5-0.3 c0-0.2,0.1-0.4,0.3-0.5l2.9-0.6L29.9,10.2z M26.6,25.6c-0.1,0-0.2,0-0.2,0c-0.5,0.1-1.1,0.2-1.6,0.4l-0.2-0.9c0.3,0,0.6,0,0.8,0 c1.7,0,3.1-0.5,4.8-1.7c0.5-0.4,1-0.6,1.4-0.9c-0.1,0.3-0.2,0.5-0.3,0.8c-0.1,0.2-0.1,0.4-0.2,0.6c-0.3,0.9-0.6,1.8-0.8,2.7 l-0.7-0.4c-0.8-0.5-1.7-0.7-2.7-0.7l0,0C26.9,25.6,26.8,25.6,26.6,25.6z M14.7,15.3l0.7-0.5L15,14.1c-0.3-0.5-0.4-1-0.4-1.5 c0-1.6,1.3-2.9,2.9-3l1.2-0.1l-0.3-1.2c0-0.2-0.1-0.4-0.1-0.6c0-1.3,1-2.4,2.3-2.5l0.9-0.1v-1c0-0.9,0.8-1.6,1.7-1.6 c0.5,0,0.9,0.2,1.1,0.4L25,3.6l0.7-0.7c0.3-0.3,0.7-0.4,1.2-0.4c0.5,0.1,1,0.5,1.2,1c-0.1,0.2,0,0.4-0.1,0.6l-0.1,1.1H29 c1.4,0,2.6,1.1,2.7,2.6v0.7l0.6,0.2c1.6,0.5,2.6,2,2.6,3.7c0,0.7-0.2,1.4-0.7,2c-0.7-0.6-1.4-1-2-1.3c-0.2-0.1-0.3-0.2-0.5-0.2 c0,0-0.1-0.1-0.1-0.2c0-0.1,0-0.3,0.1-0.4c0.4-0.5,0.6-1.2,0.5-1.8l-0.1-0.6c-0.1-0.6-0.5-1-0.9-1.3c-0.5-0.3-1-0.4-1.6-0.3 l-0.3,0.1l0,0L26.4,9l-2.9,0.6c-0.6,0.1-1,0.5-1.3,0.9c-0.3,0.5-0.4,1.1-0.3,1.6l0.1,0.3l0,0l0,0l0.1,0.3c0.1,0.7,0.6,1.2,1.2,1.5 c0.2,0.1,0.3,0.2,0.3,0.3s0,0.1,0,0.2l0,0c-0.1,0.1-0.2,0.3-0.3,0.4c-0.1,0.1-0.2,0.3-0.3,0.4c0,0.1-0.1,0.1-0.1,0.2 c-0.1,0.1-0.2,0.2-0.2,0.3c0,0.1-0.1,0.1-0.1,0.2c-0.1,0.1-0.1,0.2-0.2,0.4c0,0.1-0.1,0.1-0.1,0.2c-0.1,0.1-0.1,0.3-0.2,0.4 c0,0.1-0.1,0.1-0.1,0.2c-0.1,0.2-0.2,0.4-0.2,0.7v0.1c0,0.2-0.1,0.4-0.1,0.6c0,0.1,0,0.2,0,0.3c0,0.1,0,0.2,0,0.4l0,0 c0,0,0,0,0-0.1c-0.2-0.2-0.3-0.4-0.5-0.6c-0.1-0.1-0.1-0.1-0.2-0.2c-0.1-0.2-0.3-0.3-0.4-0.4l-0.1-0.1c-0.2-0.2-0.4-0.3-0.6-0.5 c-0.1,0-0.1-0.1-0.2-0.1c-0.1-0.1-0.3-0.2-0.4-0.3c-0.1,0-0.1-0.1-0.2-0.1C19,17,18.8,17,18.6,16.9c0,0-0.1,0-0.1-0.1 c-0.2-0.1-0.3-0.1-0.5-0.1c0,0,0,0-0.1,0h-0.1c-0.1,0-0.2,0-0.3,0s-0.2,0-0.2,0s0,0-0.1,0c-0.2,0-0.3,0-0.5,0c-0.1,0-0.1,0-0.2,0 c-0.2,0-0.4,0.1-0.6,0.1h-0.1c-0.5,0.2-1,0.4-1.4,0.7C14,17.3,14,17,14,16.8C14,16.2,14.2,15.7,14.7,15.3z M8.3,23.6 c0.4-0.8,1.4-1.4,3.2-1.9c0.8-0.2,1.6-0.7,2.2-1.3c0.3-0.3,0.6-0.5,0.8-0.7c0.8-0.7,1.5-1,2.1-1.1l0,0c0.2,0,0.4,0,0.6,0h0.1 c0.1,0,0.2,0,0.3,0.1c0.1,0,0.1,0.1,0.2,0.1c0.1,0,0.2,0.1,0.3,0.1s0.1,0.1,0.2,0.1c0.1,0.1,0.2,0.1,0.2,0.2 c0.1,0.1,0.2,0.1,0.2,0.2s0.2,0.1,0.2,0.2c0.1,0.1,0.2,0.2,0.3,0.3c0.1,0.1,0.1,0.1,0.2,0.2s0.2,0.2,0.3,0.4 c0.1,0.1,0.1,0.2,0.2,0.2c0.1,0.2,0.2,0.3,0.3,0.5c0,0.1,0.1,0.1,0.1,0.2c0.2,0.3,0.3,0.5,0.5,0.8c0.7,1.3,1,3.2,0.7,4.9 c-0.1,0-0.1,0-0.2,0c-0.4-0.1-0.7-0.2-1.1-0.4l-0.7-0.4c-0.8-0.5-1.7-0.7-2.7-0.7l0,0c-0.9,0-1.9,0.2-2.7,0.7l-0.3,0.2 c-0.5,0.4-1.2,0.6-1.8,0.6c-0.7,0-1.4-0.2-2-0.6l-1.3-0.8l0,0c-0.2-0.1-0.4-0.2-0.6-0.2C7.9,24.7,8,24.1,8.3,23.6z M45.2,51.4 c-0.1,2-1.7,3.5-3.7,3.5H13.4c-2,0-3.6-1.5-3.7-3.5L8,27.8l0.9,0.5c1,0.5,2,0.8,3.1,0.8c1,0,2.1-0.3,3-0.8l0.4-0.2 c0.5-0.3,1-0.4,1.6-0.4s1.1,0.2,1.6,0.4l0.7,0.4c0.9,0.5,1.9,0.8,2.9,0.7c0.1,0,0.2,0,0.3,0l0,0c0.7-0.1,1.4-0.3,2-0.6 c0.1,0,0.1,0,0.2-0.1l0.7-0.4c0.5-0.3,1-0.4,1.6-0.4s1.1,0.2,1.6,0.4l0.7,0.4c0.8,0.5,1.6,0.7,2.4,0.7c0,0,0,0,0.1,0 c0.3,0,0.6,0,0.9,0c0.2,0,0.3-0.1,0.5-0.1c0.1,0,0.2,0,0.2-0.1c0.4-0.1,0.9-0.3,1.3-0.5l0,0l0.7-0.4c0.5-0.3,1-0.4,1.6-0.4 c0.6,0,1.1,0.2,1.6,0.4l0.7,0.4c0.8,0.5,1.8,0.7,2.7,0.7l0,0c0.9,0,1.8-0.2,2.6-0.7l2-0.9l0.1-0.1l0.2-0.1L45.2,51.4z"></path> <path class="st0" d="M12,43.1h7c0.6,0,1-0.4,1-1s-0.4-1-1-1h-7c-0.6,0-1,0.4-1,1S11.4,43.1,12,43.1z"></path> <path class="st0" d="M12,47.1h9c0.6,0,1-0.4,1-1s-0.4-1-1-1h-9c-0.6,0-1,0.4-1,1S11.4,47.1,12,47.1z"></path> <path class="st0" d="M23,49.1H12c-0.6,0-1,0.4-1,1s0.4,1,1,1h11c0.6,0,1-0.4,1-1S23.6,49.1,23,49.1z"></path> <path class="st0" d="M29,49.1h-2c-0.6,0-1,0.4-1,1s0.4,1,1,1h2c0.6,0,1-0.4,1-1S29.6,49.1,29,49.1z"></path> </g> </svg> 