<?xml version="1.0" encoding="UTF-8"?> <!-- Generator: Adobe Illustrator 24.1.3, SVG Export Plug-In . SVG Version: 6.00 Build 0) --> <svg xmlns="http://www.w3.org/2000/svg" xmlns:xlink="http://www.w3.org/1999/xlink" version="1.1" id="Capa_1" x="0px" y="0px" viewBox="0 0 460.4 460.4" style="enable-background:new 0 0 460.4 460.4;" xml:space="preserve"> <style type="text/css"> .st0{fill:#636363;} </style> <g> <path class="st0" d="M95.3,283.1c-13.8,0-25,11.2-25,25s11.2,25,25,25s25-11.2,25-25S109.1,283.1,95.3,283.1z M95.3,318.2 c-5.5,0-10-4.5-10-10s4.5-10,10-10s10,4.5,10,10S100.8,318.2,95.3,318.2z"></path> <path class="st0" d="M357,283.1c-13.8,0-25,11.2-25,25s11.2,25,25,25c13.8,0,25-11.2,25-25S370.8,283.1,357,283.1z M357,318.2 c-5.5,0-10-4.5-10-10s4.5-10,10-10c5.5,0,10,4.5,10,10S362.5,318.2,357,318.2z"></path> <path class="st0" d="M409.2,196.4l-66.9-7.6l-35.7-58.1C295.7,113,276,102,255.2,102H133.7c-34.9,0-65.8,23.5-75.1,57.2l-0.9,3.4 c-4.6,16.7-17.8,30.1-34.5,34.8C9.5,201.2,0,213.8,0,227.9v83c0,4.1,3.4,7.5,7.5,7.5h38.6c4.8,22.8,25,40,49.2,40 s44.4-17.2,49.2-40h163.4c4.8,22.8,25,40,49.2,40s44.4-17.2,49.2-40h40.5c3.8,0,7-2.9,7.5-6.6l5.9-51.5 C463.6,228.7,440.8,200,409.2,196.4z M15,294.3h31.9c-0.8,2.9-1.4,6-1.7,9.1H15V294.3z M95.3,343.4c-19.4,0-35.3-15.8-35.3-35.3 s15.8-35.3,35.3-35.3s35.3,15.8,35.3,35.3S114.7,343.4,95.3,343.4z M357,343.4c-19.4,0-35.3-15.8-35.3-35.3s15.8-35.3,35.3-35.3 s35.3,15.8,35.3,35.3S376.5,343.4,357,343.4z M357,257.9c-17,0-32,8.5-41.1,21.4H182.4c-4.1,0-7.5,3.4-7.5,7.5s3.4,7.5,7.5,7.5 h126.3c-0.8,2.9-1.4,6-1.7,9.1H145.3c-2.4-25.5-23.9-45.5-50-45.5c-17,0-32,8.5-41.1,21.4H15v-51.4c0-7.5,5-14.1,12.2-16.1 c21.7-6.1,38.9-23.5,44.9-45.2l0.9-3.4c7.5-27.2,32.4-46.2,60.6-46.2h121.5c15.6,0,30.5,8.3,38.6,21.6l37.6,61.2 c1.2,2,3.2,3.3,5.5,3.5l70.5,8.1c16,1.8,28.9,12.3,34.7,26.3h-23.4c-4.1,0-7.5,3.4-7.5,7.5s3.4,7.5,7.5,7.5h26.6c0.1,2,0,4-0.3,6 l-2.4,20.7h-44.6C389,266.4,374,257.9,357,257.9z M407,303.4c-0.3-3.1-0.9-6.2-1.7-9.1H441l-1,9.1H407z"></path> <path class="st0" d="M255.6,215.2h-15.8c-4.1,0-7.5,3.4-7.5,7.5s3.4,7.5,7.5,7.5h15.8c4.1,0,7.5-3.4,7.5-7.5 S259.7,215.2,255.6,215.2z"></path> <path class="st0" d="M154.8,222.7c0-4.1-3.4-7.5-7.5-7.5h-15.8c-4.1,0-7.5,3.4-7.5,7.5s3.4,7.5,7.5,7.5h15.8 C151.5,230.2,154.8,226.9,154.8,222.7z"></path> <path class="st0" d="M286,143.4c-6.5-10.6-18.3-17.2-30.8-17.2H133.7c-24.1,0-45.4,16.2-51.8,39.4L81,169c-2.5,9-6.3,24.3-6.4,25 c-0.6,2.2,0,4.6,1.4,6.4c1.4,1.8,3.6,2.9,5.9,2.9h227.6c2.7,0,5.2-1.5,6.5-3.8c1.3-2.4,1.3-5.3-0.2-7.6L286,143.4z M199.4,141.1 v47.2h-69.1v-47c1.1-0.1,2.2-0.2,3.4-0.2L199.4,141.1L199.4,141.1z M95.4,173l0.9-3.4c2.9-10.4,9.9-18.8,18.9-23.7v42.5H91.4 C92.7,183.3,94.2,177.3,95.4,173z M214.4,188.3v-47.2h40.8c7.3,0,14.2,3.9,18.1,10.1l22.8,37.1H214.4z"></path> </g> </svg> 