<?xml version="1.0" encoding="UTF-8"?> <!-- Generator: Adobe Illustrator 23.0.2, SVG Export Plug-In . SVG Version: 6.00 Build 0) --> <svg xmlns="http://www.w3.org/2000/svg" xmlns:xlink="http://www.w3.org/1999/xlink" id="Layer_1" x="0px" y="0px" viewBox="0 0 306 306" style="enable-background:new 0 0 306 306;" xml:space="preserve"> <style type="text/css"> .st0{fill:#636363;} .st1{fill:none;} </style> <g> <g> <g> <path class="st0" d="M131.4,439.5h8.1c3.2,0,5.7-2.6,5.7-5.7c0-3.2-2.6-5.7-5.7-5.7h-8.1c-3.2,0-5.7,2.6-5.7,5.7 c0,1.6,0.6,3,1.7,4.1C128.4,438.9,129.8,439.5,131.4,439.5z"></path> </g> </g> <g> <polygon class="st1" points="196.3,86.5 196.3,144.3 240.4,101.5 138.4,8 36.6,101.5 80.6,144.3 80.6,86.5 "></polygon> </g> </g> <path class="st0" d="M56.8,149.1c-3.2,10.6-3.2,22.5,0,34.5c0.4,1.5,1.4,2.6,2.7,2.9c0.8,0.2,1.6,0.1,2.5-0.2c2.2-1,3.4-3.9,2.8-6.3 c-5.3-19.9,0-38.5,13.3-46.3c2.1-1.2,3.1-4.2,2.3-6.6c-0.9-2.4-3.3-3.3-5.4-2.1C66.4,129.9,60,138.4,56.8,149.1z"></path> <path class="st0" d="M220.8,116.9c-9.2-9.5-19.6-14.1-31.9-14.1c-11.4,0-22.3,4-31.9,7.5c-7,2.5-13.5,4.9-18.5,5.1 c-5-0.2-11.5-2.6-18.5-5.1c-9.6-3.5-20.6-7.5-31.9-7.5c-12.3,0-22.7,4.6-31.9,14.1c-28.9,29.9-18.9,63.2-12.9,83.1l0.3,1 c5.5,18.3,26.2,78,61,78c18.6,0,24.8-3.3,29.4-5.8c1.9-1,2.9-1.5,4.6-1.6c2,0.1,3.2,0.7,5.4,1.8c4.7,2.4,11.1,5.6,28.6,5.6 c34.8,0,55.5-59.7,61-78l0.3-1C239.7,180.1,249.8,146.8,220.8,116.9z M222.4,196.4l-0.3,1c-2.4,7.9-9,28.1-19.5,45.1 c-6.9,11.1-17.7,24.4-30.2,24.4c-14.7,0-19.6-2.4-23.4-4.4c-2.8-1.4-5.7-2.9-10.4-3h-0.2h-0.2c-4.5,0.1-7.3,1.6-9.8,3 c-3.7,2-8.3,4.4-24,4.4c-12.5,0-23.3-13.3-30.2-24.4c-10.5-17-17.2-37.2-19.5-45.1l-0.3-1c-5.5-18.4-13.9-46.2,10-70.9 C71.4,118.3,78.9,115,88,115c9.4,0,18.8,3.5,28,6.8c7.9,2.9,15.4,5.6,22.3,5.8h0.1h0.1c6.8-0.2,14.3-2.9,22.3-5.8 c9.2-3.4,18.7-6.8,28-6.8c9.2,0,16.7,3.3,23.6,10.5C236.4,150.2,228.1,178,222.4,196.4z"></path> <path class="st0" d="M196.7,244.2c7.3-9.8,12.1-22,13.8-35.2c0.2-1.7-0.4-3.1-1.4-3.8c-0.7-0.5-1.5-0.7-2.5-0.5 c-2.5,0.3-4.8,2.8-5.2,5.6c-2.9,22.1-15.4,39.4-31.2,43.1c-2.5,0.6-4.7,3.3-4.8,6s1.8,4.4,4.3,3.8 C179.8,260.8,189.4,254.1,196.7,244.2z"></path> <path class="st0" d="M134.8,95.2c-2.2,6.8-1.2,14.9,3,23.2c0.5,1.1,1.6,1.9,2.9,2.2c0.8,0.2,1.6,0.2,2.4,0c2-0.5,3-2.3,2.1-4 c-6.9-13.9-3.4-25.9,8.9-30c2-0.7,2.7-2.5,1.6-4.2c-1.1-1.7-3.5-2.5-5.5-1.9C142.4,83.2,136.9,88.4,134.8,95.2z"></path> <path class="st0" d="M305.5,247.2l-20.7-49.6v-77.3l0,0c0-1.7-1-3.3-2.5-4.3L146.2,28.1L146,28c-2-1.2-4.8-1.3-6.9,0.1L2.6,116 c-1.5,1-2.5,2.6-2.5,4.3c0,1.7,0.9,3.3,2.4,4.4l42,28.6v-13.6l-28.2-19.2l126.2-81.4l126.2,81.4l-38.4,26.2v13.6l42.5-29v66.2 L252,247.1c-1.2,2.8,0.4,5.9,3.5,7c0.7,0.2,1.4,0.3,2.1,0.3c2.4,0,4.8-1.3,5.7-3.5l9.3-22.5V249c0,3,2.7,5.4,6,5.4s6-2.4,6-5.4 v-20.6l9.3,22.4c0.9,2.2,3.2,3.5,5.7,3.5c0.7,0,1.4-0.1,2.1-0.3C305.2,253.1,306.8,250,305.5,247.2z"></path> </svg> 