<?xml version="1.0" encoding="UTF-8"?> <!-- Generator: Adobe Illustrator 24.2.3, SVG Export Plug-In . SVG Version: 6.00 Build 0) --> <svg xmlns="http://www.w3.org/2000/svg" xmlns:xlink="http://www.w3.org/1999/xlink" version="1.1" id="Layer_1" x="0px" y="0px" viewBox="0 0 133.6 133.6" style="enable-background:new 0 0 133.6 133.6;" xml:space="preserve"> <style type="text/css"> .st0{fill:#636363;} </style> <g id="Layer_2_1_"> <g id="Layer_1-2"> <path class="st0" d="M132.4,64.5l-13.3-6.7l13.4-6.7c1-0.5,1.4-1.8,0.9-2.8c-0.2-0.4-0.6-0.8-1-1l-31.4-14 c1.2-5.2,0.6-10.7-1.6-15.5c-3.1-6.6-9-11.3-15.4-12.2C77.4,4.5,70.7,6.1,65.3,10c-5.4-3.9-12.2-5.4-18.7-4.3 c-6.4,0.9-12.3,5.6-15.4,12.2c-2.4,5.2-2.9,11.2-1.3,16.8L1.2,47.3C0.5,47.7,0,48.4,0,49.2c0,0.8,0.4,1.5,1.1,1.9l13.3,6.7 L1.1,64.5c-1,0.5-1.4,1.7-0.9,2.8c0.2,0.4,0.6,0.8,1,1l15.9,7.1V105c0,0.8,0.5,1.6,1.2,1.9L66,128.1c0.5,0.2,1.1,0.2,1.7,0 l47.7-21.2c0.7-0.3,1.2-1.1,1.2-1.9V75.3l15.8-7c1-0.5,1.5-1.7,1.1-2.7C133.2,65.1,132.9,64.7,132.4,64.5L132.4,64.5z M99.7,37.3 l27,12l-12.3,6.1l-20.3-9c1.2-1.5,2.3-3,3.3-4.6C98.4,40.4,99.1,38.9,99.7,37.3z M34.9,19.6c2.5-5.4,7.2-9.2,12.2-9.9 c1.2-0.2,2.3-0.3,3.5-0.3c8.4,0,13,4.4,13.2,4.6c0.8,0.8,2.1,0.8,2.9,0c0.3-0.2,6.1-5.9,16.7-4.4c5,0.7,9.7,4.5,12.2,9.9 c3,6.4,2.4,13.6-1.6,20.1c-8,12.7-24.7,21.7-28.7,23.7c-4-2-20.8-11-28.7-23.7C32.5,33.3,32,26,34.9,19.6z M6.9,49.4l24.3-10.8 c0.5,1.1,1.1,2.3,1.8,3.3c1.2,2,2.6,3.8,4.2,5.6l-18,8L6.9,49.4z M6.9,66.2l12.3-6.1l42.8,19l-12.3,6.1L6.9,66.2z M64.7,123 l-43.5-19.4V77.1l27.6,12.3c0.3,0.1,0.6,0.2,0.8,0.2c0.3,0,0.6-0.1,0.9-0.2l14.1-7L64.7,123z M66.8,76.8l-42.5-19l15.9-7.1 C50.5,61,63.7,67.3,64.4,67.6c0.3,0.1,0.6,0.2,0.9,0.2c0.3,0,0.6-0.1,0.9-0.2c0.7-0.3,14.8-7,25.2-17.8l18.1,8L66.8,76.8z M112.4,103.6L68.9,123V82.4l14,7c0.3,0.1,0.6,0.2,0.9,0.2c0.3,0,0.6-0.1,0.8-0.2l27.7-12.4V103.6z M83.9,85.3l-12.3-6.1l42.7-19 l12.3,6.1L83.9,85.3z"></path> <path class="st0" d="M53.4,48c1.1,0.4,2.3-0.1,2.7-1.2c0.4-1,0-2.1-1-2.6c-0.6-0.3-14.7-6.9-11.6-20.4c0.4-1.1-0.1-2.3-1.1-2.7 c-1.1-0.4-2.3,0.1-2.7,1.1c-0.1,0.2-0.1,0.4-0.2,0.7C35.7,39.7,53.2,47.9,53.4,48z"></path> </g> </g> </svg> 